<?xml version="1.0" encoding="UTF-8"?>
<!DOCTYPE svg PUBLIC "-//W3C//DTD SVG 1.1//EN" "http://www.w3.org/Graphics/SVG/1.1/DTD/svg11.dtd">
<svg xmlns="http://www.w3.org/2000/svg" version="1.1" width="674px" height="268px" style="shape-rendering:geometricPrecision; text-rendering:geometricPrecision; image-rendering:optimizeQuality; fill-rule:evenodd; clip-rule:evenodd" xmlns:xlink="http://www.w3.org/1999/xlink">
<g><path style="opacity:1" fill="#f2e81b" d="M 123.5,-0.5 C 126.167,-0.5 128.833,-0.5 131.5,-0.5C 145.833,0.833333 160.167,0.833333 174.5,-0.5C 180.167,-0.5 185.833,-0.5 191.5,-0.5C 229.373,0.172545 267.373,0.839212 305.5,1.5C 310.965,0.876264 316.298,0.209597 321.5,-0.5C 324.167,-0.5 326.833,-0.5 329.5,-0.5C 385.167,0.833333 440.833,0.833333 496.5,-0.5C 497.833,-0.5 499.167,-0.5 500.5,-0.5C 507.982,0.49203 515.648,0.825363 523.5,0.5C 372.113,1.85112 220.446,3.18445 68.5,4.5C 68.5,5.83333 68.5,7.16667 68.5,8.5C 63.2769,9.87268 57.9436,10.5393 52.5,10.5C 52.5,9.83333 52.5,9.16667 52.5,8.5C 60.2622,5.52539 68.2622,3.02539 76.5,1C 92.3387,0.831398 108.005,0.331398 123.5,-0.5 Z"/></g>
<g><path style="opacity:1" fill="#fce407" d="M 523.5,0.5 C 557.705,6.61585 581.038,25.9492 593.5,58.5C 593.145,64.0335 593.978,69.3668 596,74.5C 596.667,83.1667 596.667,91.8333 596,100.5C 594.536,101.459 593.703,102.792 593.5,104.5C 592.01,110.424 591.01,116.424 590.5,122.5C 590.167,123.167 589.833,123.833 589.5,124.5C 588.833,124.5 588.5,124.833 588.5,125.5C 587.026,127.137 585.192,128.137 583,128.5C 580.774,127.967 578.607,127.3 576.5,126.5C 574.603,125.195 572.269,124.529 569.5,124.5C 567.167,124.833 564.833,125.167 562.5,125.5C 561.012,127.577 559.012,128.577 556.5,128.5C 555.043,125.348 554.043,122.015 553.5,118.5C 552.167,118.5 550.833,118.5 549.5,118.5C 545.774,112.76 542.44,106.76 539.5,100.5C 541.506,97.8992 542.339,94.5659 542,90.5C 541.25,89.8742 540.416,89.3742 539.5,89C 541.352,88.5339 543.352,87.7006 545.5,86.5C 545.5,90.5 545.5,94.5 545.5,98.5C 548.898,98.8204 552.232,98.487 555.5,97.5C 558.109,95.2971 561.109,94.2971 564.5,94.5C 564.5,93.1667 564.5,91.8333 564.5,90.5C 566.924,90.8076 569.257,90.4742 571.5,89.5C 572.077,87.4501 573.41,86.4501 575.5,86.5C 575.74,83.4212 575.407,80.4212 574.5,77.5C 571.833,77.1667 569.167,76.8333 566.5,76.5C 561.589,76.3065 557.589,76.9732 554.5,78.5C 554.577,81.0124 553.577,83.0124 551.5,84.5C 550.106,82.016 548.606,82.016 547,84.5C 546.228,84.3552 545.561,84.0219 545,83.5C 542.175,85.3325 539.341,87.1659 536.5,89C 538.116,89.6152 539.449,90.6152 540.5,92C 539.123,93.3975 538.29,94.8975 538,96.5C 535.718,95.2885 535.218,93.6219 536.5,91.5C 533.232,90.513 529.898,90.1796 526.5,90.5C 526.5,88.5 526.5,86.5 526.5,84.5C 529.167,85.1667 531.833,85.8333 534.5,86.5C 534.704,84.3146 535.37,82.3146 536.5,80.5C 539.47,78.9715 540.136,76.6381 538.5,73.5C 539,72.5 539.5,71.5 540,70.5C 540.219,71.938 540.719,73.2713 541.5,74.5C 541.833,73.8333 542.167,73.1667 542.5,72.5C 541.238,69.978 540.571,67.3113 540.5,64.5C 542.439,63.9862 543.439,62.6528 543.5,60.5C 542.538,57.8507 542.205,55.3507 542.5,53C 537.949,52.945 534.949,50.7784 533.5,46.5C 531.07,48.3817 528.403,49.715 525.5,50.5C 525.657,51.8734 525.49,53.2068 525,54.5C 523.997,52.0649 523.497,52.3982 523.5,55.5C 523.667,56.5 523.833,57.5 524,58.5C 524.92,58.9302 525.753,59.2635 526.5,59.5C 523.516,62.6969 523.849,65.3636 527.5,67.5C 526.817,70.4614 525.984,70.7947 525,68.5C 524.531,72.0743 523.364,75.4076 521.5,78.5C 522.301,73.9649 522.301,69.2983 521.5,64.5C 520.167,65.8333 518.833,67.1667 517.5,68.5C 516.663,66.1558 515.329,64.1558 513.5,62.5C 511.797,66.7949 512.797,70.2949 516.5,73C 512.935,76.2295 511.435,75.0628 512,69.5C 510.644,68.6198 509.144,68.2865 507.5,68.5C 508.152,64.4399 506.485,62.4399 502.5,62.5C 501.829,61.1529 501.829,59.9862 502.5,59C 499.773,58.1816 497.106,58.3483 494.5,59.5C 493.561,63.7649 493.228,68.0983 493.5,72.5C 493.184,75.9783 493.684,79.3117 495,82.5C 496.333,79.8333 497.667,79.8333 499,82.5C 499.333,82.1667 499.667,81.8333 500,81.5C 500.037,85.0889 500.87,88.4222 502.5,91.5C 502.167,92.1667 501.833,92.8333 501.5,93.5C 497.217,94.4922 492.884,94.8256 488.5,94.5C 485.447,94.8893 482.78,94.2227 480.5,92.5C 481.263,91.7321 482.263,91.2321 483.5,91C 479.129,90.1725 474.795,90.3391 470.5,91.5C 469.593,94.4212 469.26,97.4212 469.5,100.5C 470.5,100.5 471.5,100.5 472.5,100.5C 477.809,101.076 482.809,102.409 487.5,104.5C 489.4,106.343 491.233,108.343 493,110.5C 494.921,108.997 497.088,108.331 499.5,108.5C 499.833,104.5 500.167,100.5 500.5,96.5C 502.981,96.3234 504.814,97.3234 506,99.5C 506.333,105.167 506.667,110.833 507,116.5C 507.816,117.823 508.983,118.489 510.5,118.5C 518.332,130.158 525.665,142.158 532.5,154.5C 532.5,156.5 532.5,158.5 532.5,160.5C 521.945,158.553 514.945,162.553 511.5,172.5C 363.8,173.133 216.133,172.466 68.5,170.5C 54.4399,167.472 42.4399,160.805 32.5,150.5C 22.3636,140.553 15.0302,128.886 10.5,115.5C 11.2698,111.884 11.9365,108.217 12.5,104.5C 12.1667,102.5 11.8333,100.5 11.5,98.5C 10.8333,101.167 10.1667,103.833 9.5,106.5C 8.17753,101.254 7.51086,95.9202 7.5,90.5C 7.74856,78.6541 9.0819,66.9875 11.5,55.5C 11.5,55.1667 11.5,54.8333 11.5,54.5C 12.3764,54.6309 13.0431,54.2975 13.5,53.5C 16.1464,48.5461 18.4797,43.5461 20.5,38.5C 22.288,38.7852 23.9547,38.4519 25.5,37.5C 26.3846,33.4029 28.0512,29.7363 30.5,26.5C 34.8714,21.1275 39.8714,16.4608 45.5,12.5C 47.7373,11.551 50.0706,10.8844 52.5,10.5C 57.9436,10.5393 63.2769,9.87268 68.5,8.5C 68.5,7.16667 68.5,5.83333 68.5,4.5C 220.446,3.18445 372.113,1.85112 523.5,0.5 Z"/></g>
<g><path style="opacity:1" fill="#ebeeba" d="M 52.5,8.5 C 52.5,9.16667 52.5,9.83333 52.5,10.5C 50.0706,10.8844 47.7373,11.551 45.5,12.5C 46.855,9.48233 49.1884,8.149 52.5,8.5 Z"/></g>
<g><path style="opacity:0.859" fill="#efe651" d="M 30.5,26.5 C 28.0512,29.7363 26.3846,33.4029 25.5,37.5C 23.9547,38.4519 22.288,38.7852 20.5,38.5C 18.4797,43.5461 16.1464,48.5461 13.5,53.5C 13.0431,54.2975 12.3764,54.6309 11.5,54.5C 15.3606,43.4319 21.694,34.0986 30.5,26.5 Z"/></g>
<g><path style="opacity:1" fill="#736732" d="M 245.5,42.5 C 251.833,42.5 258.167,42.5 264.5,42.5C 264.5,71.8333 264.5,101.167 264.5,130.5C 264.167,130.5 263.833,130.5 263.5,130.5C 263.5,101.5 263.5,72.5 263.5,43.5C 257.833,43.5 252.167,43.5 246.5,43.5C 246.5,72.5 246.5,101.5 246.5,130.5C 245.502,101.338 245.169,72.0047 245.5,42.5 Z"/></g>
<g><path style="opacity:1" fill="#050304" d="M 263.5,130.5 C 257.833,130.5 252.167,130.5 246.5,130.5C 246.5,101.5 246.5,72.5 246.5,43.5C 252.167,43.5 257.833,43.5 263.5,43.5C 263.5,72.5 263.5,101.5 263.5,130.5 Z"/></g>
<g><path style="opacity:1" fill="#0a0708" d="M 142.5,42.5 C 154.159,46.4953 161.825,54.4953 165.5,66.5C 165.5,68.5 165.5,70.5 165.5,72.5C 159.208,73.0531 153.208,72.3864 147.5,70.5C 146.746,62.5786 142.412,58.0786 134.5,57C 125.322,55.0906 118.655,58.2573 114.5,66.5C 112.837,68.4927 111.67,70.8261 111,73.5C 110.333,82.5 110.333,91.5 111,100.5C 113.138,107.641 117.304,113.141 123.5,117C 127.833,117.667 132.167,117.667 136.5,117C 138.32,116.8 139.653,115.966 140.5,114.5C 142.017,114.489 143.184,113.823 144,112.5C 146.035,109.439 147.201,106.105 147.5,102.5C 153.409,101.545 159.409,101.211 165.5,101.5C 165.5,103.167 165.5,104.833 165.5,106.5C 162.773,118.228 155.773,126.228 144.5,130.5C 143.833,130.5 143.167,130.5 142.5,130.5C 134.833,131.833 127.167,131.833 119.5,130.5C 112.973,128.655 107.306,125.322 102.5,120.5C 93.8393,107.854 90.506,93.8539 92.5,78.5C 95.2706,56.229 107.771,43.8956 130,41.5C 134.16,41.9756 138.327,42.3089 142.5,42.5 Z"/></g>
<g><path style="opacity:1" fill="#050204" d="M 196.5,116.5 C 209.167,116.5 221.833,116.5 234.5,116.5C 234.5,121.167 234.5,125.833 234.5,130.5C 215.833,130.5 197.167,130.5 178.5,130.5C 178.5,101.5 178.5,72.5 178.5,43.5C 184.167,43.5 189.833,43.5 195.5,43.5C 195.169,68.0057 195.502,92.3391 196.5,116.5 Z"/></g>
<g><path style="opacity:1" fill="#6b6334" d="M 177.5,42.5 C 183.833,42.5 190.167,42.5 196.5,42.5C 196.5,67.1667 196.5,91.8333 196.5,116.5C 195.502,92.3391 195.169,68.0057 195.5,43.5C 189.833,43.5 184.167,43.5 178.5,43.5C 178.5,72.5 178.5,101.5 178.5,130.5C 177.502,101.338 177.169,72.0047 177.5,42.5 Z"/></g>
<g><path style="opacity:1" fill="#fde405" d="M 121.5,112.5 C 120.871,109.871 119.205,108.204 116.5,107.5C 115.79,104.327 114.623,101.327 113,98.5C 112.425,87.7827 112.925,77.1161 114.5,66.5C 117.187,66.6641 119.854,66.4974 122.5,66C 124.831,62.0556 127.831,61.5556 131.5,64.5C 132.429,63.3112 132.762,61.9778 132.5,60.5C 133.978,60.238 135.311,60.5713 136.5,61.5C 133.849,65.2543 134.015,68.921 137,72.5C 138.252,69.9865 138.752,67.3198 138.5,64.5C 141.388,64.2196 142.888,65.5529 143,68.5C 143.333,67.8333 143.667,67.1667 144,66.5C 144.497,69.146 144.664,71.8127 144.5,74.5C 152.84,74.6664 161.173,74.4997 169.5,74C 170.227,71.876 170.894,69.7094 171.5,67.5C 172.325,66.6143 173.325,66.281 174.5,66.5C 174.247,86.4685 173.914,106.469 173.5,126.5C 172.833,127.167 172.167,127.833 171.5,128.5C 170.205,118.982 170.205,109.482 171.5,100C 170.667,98.5 169.5,97.3333 168,96.5C 160.971,98.0553 153.804,99.0553 146.5,99.5C 145.126,103.313 144.293,102.98 144,98.5C 143.147,100.125 142.147,100.458 141,99.5C 140.508,100.549 140.674,101.549 141.5,102.5C 139.609,104.849 139.276,107.515 140.5,110.5C 138.549,110.227 137.049,110.893 136,112.5C 134.649,111.039 133.149,109.706 131.5,108.5C 130.571,109.689 130.238,111.022 130.5,112.5C 127.5,112.5 124.5,112.5 121.5,112.5 Z"/></g>
<g><path style="opacity:1" fill="#110d0b" d="M 540.5,64.5 C 538.294,69.503 536.961,74.8364 536.5,80.5C 532.427,84.8104 529.427,84.1437 527.5,78.5C 527.846,77.1508 528.179,75.8175 528.5,74.5C 529.807,67.7698 531.807,61.2698 534.5,55C 537.025,54.1041 539.192,54.6041 541,56.5C 541.602,59.2205 541.435,61.8872 540.5,64.5 Z"/></g>
<g><path style="opacity:1" fill="#0b080a" d="M 351.5,67.5 C 351.5,69.1667 351.5,70.8333 351.5,72.5C 345.833,72.5 340.167,72.5 334.5,72.5C 333.886,67.1062 331.553,62.6062 327.5,59C 326.552,58.5172 325.552,58.3505 324.5,58.5C 324.389,57.8826 324.056,57.3826 323.5,57C 318.833,56.3333 314.167,56.3333 309.5,57C 308.944,57.3826 308.611,57.8826 308.5,58.5C 302.482,62.1806 298.649,67.5139 297,74.5C 296.333,82.5 296.333,90.5 297,98.5C 297.738,101.501 298.904,104.168 300.5,106.5C 304.732,116.114 312.066,119.614 322.5,117C 328.829,115.171 332.496,111.004 333.5,104.5C 336.4,103.263 339.567,102.597 343,102.5C 346.252,102.519 349.085,103.186 351.5,104.5C 351.483,106.565 351.15,108.565 350.5,110.5C 348.993,114.694 346.993,118.694 344.5,122.5C 338.298,126.788 331.631,130.121 324.5,132.5C 319.167,132.5 313.833,132.5 308.5,132.5C 291.628,126.445 281.794,114.445 279,96.5C 278.501,90.5092 278.334,84.5092 278.5,78.5C 282.029,53.4637 296.362,41.297 321.5,42C 337.449,43.4456 347.449,51.9456 351.5,67.5 Z"/></g>
<g><path style="opacity:1" fill="#d9d348" d="M 324.5,58.5 C 319.167,58.5 313.833,58.5 308.5,58.5C 308.611,57.8826 308.944,57.3826 309.5,57C 314.167,56.3333 318.833,56.3333 323.5,57C 324.056,57.3826 324.389,57.8826 324.5,58.5 Z"/></g>
<g><path style="opacity:1" fill="#0b070b" d="M 382.5,43.5 C 382.5,55.1667 382.5,66.8333 382.5,78.5C 385.572,78.8174 388.572,78.4841 391.5,77.5C 398.763,65.9713 405.763,54.3047 412.5,42.5C 419.5,42.5 426.5,42.5 433.5,42.5C 432.955,44.5932 432.122,46.5932 431,48.5C 422.918,60.3292 415.084,72.3292 407.5,84.5C 415.346,97.5354 423.679,110.202 432.5,122.5C 433.429,125.412 434.762,128.079 436.5,130.5C 429.468,130.83 422.468,130.497 415.5,129.5C 414.812,128.145 413.812,127.145 412.5,126.5C 409.996,121.485 406.996,116.819 403.5,112.5C 401.189,108.66 399.023,104.66 397,100.5C 396.292,99.6195 395.458,98.9528 394.5,98.5C 394.461,97.4168 394.127,96.4168 393.5,95.5C 389.893,94.5108 386.226,94.1774 382.5,94.5C 382.5,98.5 382.5,102.5 382.5,106.5C 382.5,114.5 382.5,122.5 382.5,130.5C 376.5,130.5 370.5,130.5 364.5,130.5C 364.5,101.167 364.5,71.8333 364.5,42.5C 370.69,42.1771 376.69,42.5104 382.5,43.5 Z"/></g>
<g><path style="opacity:1" fill="#dacb46" d="M 540.5,64.5 C 540.571,67.3113 541.238,69.978 542.5,72.5C 542.167,73.1667 541.833,73.8333 541.5,74.5C 540.719,73.2713 540.219,71.938 540,70.5C 539.5,71.5 539,72.5 538.5,73.5C 540.136,76.6381 539.47,78.9715 536.5,80.5C 536.961,74.8364 538.294,69.503 540.5,64.5 Z"/></g>
<g><path style="opacity:1" fill="#e2d936" d="M 412.5,42.5 C 405.763,54.3047 398.763,65.9713 391.5,77.5C 388.572,78.4841 385.572,78.8174 382.5,78.5C 382.5,66.8333 382.5,55.1667 382.5,43.5C 383.495,54.3206 383.828,65.3206 383.5,76.5C 390.026,77.7894 392.86,75.1227 392,68.5C 392.626,66.0087 393.459,66.0087 394.5,68.5C 396.44,64.7563 397.773,60.7563 398.5,56.5C 401.526,53.4308 403.526,49.7641 404.5,45.5C 406.942,45.8808 407.609,45.2141 406.5,43.5C 408.396,42.5344 410.396,42.2011 412.5,42.5 Z"/></g>
<g><path style="opacity:1" fill="#d9cd40" d="M 502.5,62.5 C 500.504,60.6668 498.171,60.1668 495.5,61C 494.903,62.0617 494.57,63.2284 494.5,64.5C 496.507,69.1782 498.507,73.8449 500.5,78.5C 498.833,78.5 497.167,78.5 495.5,78.5C 495.946,75.9899 495.28,73.9899 493.5,72.5C 493.228,68.0983 493.561,63.7649 494.5,59.5C 497.106,58.3483 499.773,58.1816 502.5,59C 501.829,59.9862 501.829,61.1529 502.5,62.5 Z"/></g>
<g><path style="opacity:1" fill="#88830d" d="M 351.5,67.5 C 352.461,69.2646 352.795,71.2646 352.5,73.5C 346.31,73.8229 340.31,73.4896 334.5,72.5C 340.167,72.5 345.833,72.5 351.5,72.5C 351.5,70.8333 351.5,69.1667 351.5,67.5 Z"/></g>
<g><path style="opacity:1" fill="#120e10" d="M 502.5,62.5 C 504.181,65.2028 505.847,67.8695 507.5,70.5C 508.343,73.5162 509.843,76.1829 512,78.5C 512.891,81.4976 512.391,84.1643 510.5,86.5C 509.127,86.6567 507.793,86.49 506.5,86C 504.841,83.1563 502.841,80.6563 500.5,78.5C 498.507,73.8449 496.507,69.1782 494.5,64.5C 494.57,63.2284 494.903,62.0617 495.5,61C 498.171,60.1668 500.504,60.6668 502.5,62.5 Z"/></g>
<g><path style="opacity:1" fill="#d3ca44" d="M 507.5,70.5 C 508.496,70.4142 509.329,70.7476 510,71.5C 510.561,74.29 511.894,76.6234 514,78.5C 514.667,80.5 514.667,82.5 514,84.5C 513.29,85.9733 512.124,86.6399 510.5,86.5C 512.391,84.1643 512.891,81.4976 512,78.5C 509.843,76.1829 508.343,73.5162 507.5,70.5 Z"/></g>
<g><path style="opacity:1" fill="#f6e41a" d="M 540.5,64.5 C 541.435,61.8872 541.602,59.2205 541,56.5C 539.192,54.6041 537.025,54.1041 534.5,55C 531.807,61.2698 529.807,67.7698 528.5,74.5C 525.967,79.2975 524.633,84.6308 524.5,90.5C 522.821,90.2852 521.821,90.9519 521.5,92.5C 515.49,93.5118 511.323,96.8451 509,102.5C 508.07,108.014 508.57,113.348 510.5,118.5C 508.983,118.489 507.816,117.823 507,116.5C 506.667,110.833 506.333,105.167 506,99.5C 504.814,97.3234 502.981,96.3234 500.5,96.5C 500.167,100.5 499.833,104.5 499.5,108.5C 497.088,108.331 494.921,108.997 493,110.5C 491.233,108.343 489.4,106.343 487.5,104.5C 490.852,105.553 494.185,105.553 497.5,104.5C 499.117,101.378 498.45,98.878 495.5,97C 492.896,96.6097 490.562,95.7763 488.5,94.5C 492.884,94.8256 497.217,94.4922 501.5,93.5C 501.833,92.8333 502.167,92.1667 502.5,91.5C 500.87,88.4222 500.037,85.0889 500,81.5C 499.667,81.8333 499.333,82.1667 499,82.5C 497.667,79.8333 496.333,79.8333 495,82.5C 493.684,79.3117 493.184,75.9783 493.5,72.5C 495.28,73.9899 495.946,75.9899 495.5,78.5C 497.167,78.5 498.833,78.5 500.5,78.5C 502.841,80.6563 504.841,83.1563 506.5,86C 507.793,86.49 509.127,86.6567 510.5,86.5C 512.124,86.6399 513.29,85.9733 514,84.5C 514.667,82.5 514.667,80.5 514,78.5C 511.894,76.6234 510.561,74.29 510,71.5C 509.329,70.7476 508.496,70.4142 507.5,70.5C 505.847,67.8695 504.181,65.2028 502.5,62.5C 506.485,62.4399 508.152,64.4399 507.5,68.5C 509.144,68.2865 510.644,68.6198 512,69.5C 511.435,75.0628 512.935,76.2295 516.5,73C 512.797,70.2949 511.797,66.7949 513.5,62.5C 515.329,64.1558 516.663,66.1558 517.5,68.5C 518.833,67.1667 520.167,65.8333 521.5,64.5C 522.301,69.2983 522.301,73.9649 521.5,78.5C 523.364,75.4076 524.531,72.0743 525,68.5C 525.984,70.7947 526.817,70.4614 527.5,67.5C 523.849,65.3636 523.516,62.6969 526.5,59.5C 525.753,59.2635 524.92,58.9302 524,58.5C 523.833,57.5 523.667,56.5 523.5,55.5C 523.497,52.3982 523.997,52.0649 525,54.5C 525.49,53.2068 525.657,51.8734 525.5,50.5C 528.403,49.715 531.07,48.3817 533.5,46.5C 534.949,50.7784 537.949,52.945 542.5,53C 542.205,55.3507 542.538,57.8507 543.5,60.5C 543.439,62.6528 542.439,63.9862 540.5,64.5 Z"/></g>
<g><path style="opacity:1" fill="#ece228" d="M 433.5,42.5 C 434.124,42.9169 434.457,43.5836 434.5,44.5C 432.898,47.3378 432.398,50.3378 433,53.5C 434.011,52.6634 435.178,52.33 436.5,52.5C 436.5,53.8333 436.5,55.1667 436.5,56.5C 434.5,56.5 432.5,56.5 430.5,56.5C 430.485,61.196 428.818,65.196 425.5,68.5C 424.784,67.689 423.95,67.0223 423,66.5C 421.012,68.9888 418.845,71.3222 416.5,73.5C 416.987,74.4461 417.32,75.4461 417.5,76.5C 415.996,80.3614 415.329,84.3614 415.5,88.5C 417.288,88.2148 418.955,88.5481 420.5,89.5C 418.724,92.7696 418.057,96.1029 418.5,99.5C 423.217,103.212 426.884,107.878 429.5,113.5C 431.59,115.277 433.59,117.11 435.5,119C 433.937,119.759 432.937,120.926 432.5,122.5C 423.679,110.202 415.346,97.5354 407.5,84.5C 415.084,72.3292 422.918,60.3292 431,48.5C 432.122,46.5932 432.955,44.5932 433.5,42.5 Z"/></g>
<g><path style="opacity:1" fill="#e5da39" d="M 308.5,58.5 C 308.5,60.1667 308.5,61.8333 308.5,63.5C 310.199,63.3398 311.866,63.5065 313.5,64C 311.567,64.2511 309.734,64.7511 308,65.5C 307.333,64.8333 306.667,64.1667 306,63.5C 304.097,65.441 303.264,67.7743 303.5,70.5C 302.167,70.5 300.833,70.5 299.5,70.5C 297.838,82.579 298.171,94.579 300.5,106.5C 298.904,104.168 297.738,101.501 297,98.5C 296.333,90.5 296.333,82.5 297,74.5C 298.649,67.5139 302.482,62.1806 308.5,58.5 Z"/></g>
<g><path style="opacity:1" fill="#ebdc31" d="M 528.5,74.5 C 528.179,75.8175 527.846,77.1508 527.5,78.5C 529.427,84.1437 532.427,84.8104 536.5,80.5C 535.37,82.3146 534.704,84.3146 534.5,86.5C 531.833,85.8333 529.167,85.1667 526.5,84.5C 526.5,86.5 526.5,88.5 526.5,90.5C 529.898,90.1796 533.232,90.513 536.5,91.5C 535.218,93.6219 535.718,95.2885 538,96.5C 538.29,94.8975 539.123,93.3975 540.5,92C 539.449,90.6152 538.116,89.6152 536.5,89C 539.341,87.1659 542.175,85.3325 545,83.5C 545.561,84.0219 546.228,84.3552 547,84.5C 548.606,82.016 550.106,82.016 551.5,84.5C 553.577,83.0124 554.577,81.0124 554.5,78.5C 557.589,76.9732 561.589,76.3065 566.5,76.5C 569.167,76.8333 571.833,77.1667 574.5,77.5C 575.407,80.4212 575.74,83.4212 575.5,86.5C 573.41,86.4501 572.077,87.4501 571.5,89.5C 569.257,90.4742 566.924,90.8076 564.5,90.5C 564.5,91.8333 564.5,93.1667 564.5,94.5C 561.109,94.2971 558.109,95.2971 555.5,97.5C 552.232,98.487 548.898,98.8204 545.5,98.5C 545.5,94.5 545.5,90.5 545.5,86.5C 543.352,87.7006 541.352,88.5339 539.5,89C 540.416,89.3742 541.25,89.8742 542,90.5C 542.339,94.5659 541.506,97.8992 539.5,100.5C 534.814,94.9359 528.814,92.2693 521.5,92.5C 521.821,90.9519 522.821,90.2852 524.5,90.5C 524.633,84.6308 525.967,79.2975 528.5,74.5 Z"/></g>
<g><path style="opacity:1" fill="#130e0e" d="M 564.5,90.5 C 560.066,93.0504 555.4,95.0504 550.5,96.5C 546.175,95.0359 545.508,92.5359 548.5,89C 554.778,84.6952 561.444,81.1952 568.5,78.5C 569.772,78.5698 570.938,78.9032 572,79.5C 572.667,81.5 572.667,83.5 572,85.5C 569.176,86.8181 566.676,88.4848 564.5,90.5 Z"/></g>
<g><path style="opacity:1" fill="#f3e449" d="M 11.5,55.5 C 9.0819,66.9875 7.74856,78.6541 7.5,90.5C 7.51086,95.9202 8.17753,101.254 9.5,106.5C 10.1667,103.833 10.8333,101.167 11.5,98.5C 11.8333,100.5 12.1667,102.5 12.5,104.5C 11.9365,108.217 11.2698,111.884 10.5,115.5C 9.47797,112.639 7.97797,109.972 6,107.5C 5.26284,94.4735 5.59617,81.4735 7,68.5C 7.75095,63.7891 9.25095,59.4557 11.5,55.5 Z"/></g>
<g><path style="opacity:1" fill="#ded448" d="M 480.5,92.5 C 477.446,91.6789 474.446,91.6789 471.5,92.5C 470.025,95.4428 470.358,98.1094 472.5,100.5C 471.5,100.5 470.5,100.5 469.5,100.5C 469.26,97.4212 469.593,94.4212 470.5,91.5C 474.795,90.3391 479.129,90.1725 483.5,91C 482.263,91.2321 481.263,91.7321 480.5,92.5 Z"/></g>
<g><path style="opacity:1" fill="#130f0c" d="M 480.5,92.5 C 482.78,94.2227 485.447,94.8893 488.5,94.5C 490.562,95.7763 492.896,96.6097 495.5,97C 498.45,98.878 499.117,101.378 497.5,104.5C 494.185,105.553 490.852,105.553 487.5,104.5C 482.809,102.409 477.809,101.076 472.5,100.5C 470.358,98.1094 470.025,95.4428 471.5,92.5C 474.446,91.6789 477.446,91.6789 480.5,92.5 Z"/></g>
<g><path style="opacity:1" fill="#574903" d="M 333.5,101.5 C 339.833,101.5 346.167,101.5 352.5,101.5C 352.737,102.791 352.404,103.791 351.5,104.5C 349.085,103.186 346.252,102.519 343,102.5C 339.567,102.597 336.4,103.263 333.5,104.5C 333.5,103.5 333.5,102.5 333.5,101.5 Z"/></g>
<g><path style="opacity:1" fill="#f3e753" d="M 593.5,58.5 C 594.6,60.2774 595.434,62.2774 596,64.5C 599.178,79.483 599.178,94.483 596,109.5C 594.666,114.154 592.833,118.487 590.5,122.5C 591.01,116.424 592.01,110.424 593.5,104.5C 593.703,102.792 594.536,101.459 596,100.5C 596.667,91.8333 596.667,83.1667 596,74.5C 593.978,69.3668 593.145,64.0335 593.5,58.5 Z"/></g>
<g><path style="opacity:1" fill="#c7c14a" d="M 394.5,98.5 C 391.079,96.8534 387.413,96.1868 383.5,96.5C 383.813,100.042 383.479,103.375 382.5,106.5C 382.5,102.5 382.5,98.5 382.5,94.5C 386.226,94.1774 389.893,94.5108 393.5,95.5C 394.127,96.4168 394.461,97.4168 394.5,98.5 Z"/></g>
<g><path style="opacity:1" fill="#e9e226" d="M 394.5,98.5 C 395.458,98.9528 396.292,99.6195 397,100.5C 399.023,104.66 401.189,108.66 403.5,112.5C 401.076,112.808 398.743,112.474 396.5,111.5C 394.576,107.983 392.909,104.316 391.5,100.5C 389.821,98.8955 387.821,98.2289 385.5,98.5C 385.5,107.833 385.5,117.167 385.5,126.5C 386.675,126.281 387.675,126.614 388.5,127.5C 384.521,131.911 379.521,133.578 373.5,132.5C 370.087,132.483 367.087,131.816 364.5,130.5C 370.5,130.5 376.5,130.5 382.5,130.5C 382.5,122.5 382.5,114.5 382.5,106.5C 383.479,103.375 383.813,100.042 383.5,96.5C 387.413,96.1868 391.079,96.8534 394.5,98.5 Z"/></g>
<g><path style="opacity:1" fill="#e5dc32" d="M 278.5,78.5 C 278.334,84.5092 278.501,90.5092 279,96.5C 281.794,114.445 291.628,126.445 308.5,132.5C 306.473,132.662 304.473,132.495 302.5,132C 291.969,128.53 283.802,121.364 278,110.5C 277.065,108.091 276.565,105.591 276.5,103C 277.02,94.6677 277.687,86.5011 278.5,78.5 Z"/></g>
<g><path style="opacity:1" fill="#ddd361" d="M 333.5,101.5 C 339.979,100.509 346.646,100.176 353.5,100.5C 353.603,103.219 353.269,105.885 352.5,108.5C 352.253,109.713 351.586,110.38 350.5,110.5C 351.15,108.565 351.483,106.565 351.5,104.5C 352.404,103.791 352.737,102.791 352.5,101.5C 346.167,101.5 339.833,101.5 333.5,101.5 Z"/></g>
<g><path style="opacity:1" fill="#dfd73b" d="M 114.5,66.5 C 112.925,77.1161 112.425,87.7827 113,98.5C 114.623,101.327 115.79,104.327 116.5,107.5C 119.205,108.204 120.871,109.871 121.5,112.5C 127.412,114.456 133.745,115.123 140.5,114.5C 139.653,115.966 138.32,116.8 136.5,117C 132.167,117.667 127.833,117.667 123.5,117C 117.304,113.141 113.138,107.641 111,100.5C 110.333,91.5 110.333,82.5 111,73.5C 111.67,70.8261 112.837,68.4927 114.5,66.5 Z"/></g>
<g><path style="opacity:1" fill="#d3ca43" d="M 92.5,78.5 C 90.506,93.8539 93.8393,107.854 102.5,120.5C 101.325,120.719 100.325,120.386 99.5,119.5C 97.8903,117.269 96.057,115.269 94,113.5C 91.5565,101.754 91.0565,90.0873 92.5,78.5 Z"/></g>
<g><path style="opacity:1" fill="#efe227" d="M 488.5,116.5 C 493.739,115.963 498.739,116.63 503.5,118.5C 504.473,120.392 505.14,122.392 505.5,124.5C 504.125,125.877 502.625,127.877 501,130.5C 500.51,131.793 500.343,133.127 500.5,134.5C 496.623,134.846 492.957,136.012 489.5,138C 486.708,144.803 481.708,146.97 474.5,144.5C 472.616,144.716 470.949,145.383 469.5,146.5C 468.571,145.311 468.238,143.978 468.5,142.5C 469.833,142.5 471.167,142.5 472.5,142.5C 471.605,139.262 471.605,136.095 472.5,133C 471.692,132.692 471.025,132.192 470.5,131.5C 472.179,129.654 474.012,127.988 476,126.5C 477.722,126.611 477.888,127.111 476.5,128C 477.167,128.667 477.833,128.667 478.5,128C 478.13,126.39 478.797,124.89 480.5,123.5C 481.689,122.571 483.022,122.238 484.5,122.5C 484.5,121.167 484.5,119.833 484.5,118.5C 486.483,118.843 487.817,118.176 488.5,116.5 Z"/></g>
<g><path style="opacity:1" fill="#f1e41e" d="M 142.5,42.5 C 146.182,42.3347 149.848,42.5014 153.5,43C 153.167,43.3333 152.833,43.6667 152.5,44C 153.5,44.3333 154.5,44.6667 155.5,45C 155.167,45.3333 154.833,45.6667 154.5,46C 157.102,47.1396 159.769,47.9729 162.5,48.5C 162.5,47.1667 162.5,45.8333 162.5,44.5C 161.022,44.762 159.689,44.4287 158.5,43.5C 160.396,42.5344 162.396,42.2011 164.5,42.5C 165.749,50.3475 166.415,50.3475 166.5,42.5C 167.833,42.5 169.167,42.5 170.5,42.5C 169.593,48.2204 169.259,53.887 169.5,59.5C 170.522,60.354 171.355,61.354 172,62.5C 172.308,61.6919 172.808,61.0253 173.5,60.5C 174.496,54.5368 174.829,48.5368 174.5,42.5C 175.5,42.5 176.5,42.5 177.5,42.5C 177.169,72.0047 177.502,101.338 178.5,130.5C 197.167,130.5 215.833,130.5 234.5,130.5C 234.5,125.833 234.5,121.167 234.5,116.5C 235.161,117.718 235.828,119.051 236.5,120.5C 237.524,119.147 238.857,118.48 240.5,118.5C 238.901,123.707 237.901,129.04 237.5,134.5C 215.5,134.5 193.5,134.5 171.5,134.5C 171.5,135.833 171.5,137.167 171.5,138.5C 170.5,138.5 169.5,138.5 168.5,138.5C 167.789,130.444 166.623,122.444 165,114.5C 163.834,117.869 163.001,121.036 162.5,124C 159.755,125.717 156.755,126.883 153.5,127.5C 154.902,128.842 154.569,129.676 152.5,130C 149.854,130.497 147.187,130.664 144.5,130.5C 155.773,126.228 162.773,118.228 165.5,106.5C 166.461,104.735 166.795,102.735 166.5,100.5C 159.745,99.8771 153.412,100.544 147.5,102.5C 147.201,106.105 146.035,109.439 144,112.5C 143.184,113.823 142.017,114.489 140.5,114.5C 133.745,115.123 127.412,114.456 121.5,112.5C 124.5,112.5 127.5,112.5 130.5,112.5C 130.238,111.022 130.571,109.689 131.5,108.5C 133.149,109.706 134.649,111.039 136,112.5C 137.049,110.893 138.549,110.227 140.5,110.5C 139.276,107.515 139.609,104.849 141.5,102.5C 140.674,101.549 140.508,100.549 141,99.5C 142.147,100.458 143.147,100.125 144,98.5C 144.293,102.98 145.126,103.313 146.5,99.5C 153.804,99.0553 160.971,98.0553 168,96.5C 169.5,97.3333 170.667,98.5 171.5,100C 170.205,109.482 170.205,118.982 171.5,128.5C 172.167,127.833 172.833,127.167 173.5,126.5C 173.914,106.469 174.247,86.4685 174.5,66.5C 173.325,66.281 172.325,66.6143 171.5,67.5C 170.894,69.7094 170.227,71.876 169.5,74C 161.173,74.4997 152.84,74.6664 144.5,74.5C 144.664,71.8127 144.497,69.146 144,66.5C 143.667,67.1667 143.333,67.8333 143,68.5C 142.888,65.5529 141.388,64.2196 138.5,64.5C 138.752,67.3198 138.252,69.9865 137,72.5C 134.015,68.921 133.849,65.2543 136.5,61.5C 135.311,60.5713 133.978,60.238 132.5,60.5C 132.762,61.9778 132.429,63.3112 131.5,64.5C 127.831,61.5556 124.831,62.0556 122.5,66C 119.854,66.4974 117.187,66.6641 114.5,66.5C 118.655,58.2573 125.322,55.0906 134.5,57C 142.412,58.0786 146.746,62.5786 147.5,70.5C 147.5,71.5 147.5,72.5 147.5,73.5C 153.833,73.5 160.167,73.5 166.5,73.5C 166.802,70.9407 166.468,68.6074 165.5,66.5C 161.825,54.4953 154.159,46.4953 142.5,42.5 Z"/></g>
<g><path style="opacity:1" fill="#d9c370" d="M 165.5,106.5 C 165.5,104.833 165.5,103.167 165.5,101.5C 159.409,101.211 153.409,101.545 147.5,102.5C 153.412,100.544 159.745,99.8771 166.5,100.5C 166.795,102.735 166.461,104.735 165.5,106.5 Z"/></g>
<g><path style="opacity:1" fill="#948a11" d="M 165.5,66.5 C 166.468,68.6074 166.802,70.9407 166.5,73.5C 160.167,73.5 153.833,73.5 147.5,73.5C 147.5,72.5 147.5,71.5 147.5,70.5C 153.208,72.3864 159.208,73.0531 165.5,72.5C 165.5,70.5 165.5,68.5 165.5,66.5 Z"/></g>
<g><path style="opacity:1" fill="#140e0f" d="M 494.5,120.5 C 499.993,119.178 502.493,121.178 502,126.5C 496.279,130.396 490.446,134.062 484.5,137.5C 477.97,140.243 475.47,138.243 477,131.5C 483.118,128.196 488.951,124.53 494.5,120.5 Z"/></g>
<g><path style="opacity:1" fill="#dcd64b" d="M 344.5,122.5 C 344.278,124.607 343.278,126.274 341.5,127.5C 336.057,130.274 330.39,131.94 324.5,132.5C 331.631,130.121 338.298,126.788 344.5,122.5 Z"/></g>
<g><path style="opacity:1" fill="#d7d24d" d="M 549.5,118.5 C 550.833,118.5 552.167,118.5 553.5,118.5C 554.043,122.015 555.043,125.348 556.5,128.5C 559.012,128.577 561.012,127.577 562.5,125.5C 564.833,125.167 567.167,124.833 569.5,124.5C 572.269,124.529 574.603,125.195 576.5,126.5C 573.221,125.508 569.888,125.341 566.5,126C 562.961,128.075 559.627,130.242 556.5,132.5C 554.713,127.592 552.379,122.925 549.5,118.5 Z"/></g>
<g><path style="opacity:1" fill="#aba518" d="M 412.5,126.5 C 413.812,127.145 414.812,128.145 415.5,129.5C 422.468,130.497 429.468,130.83 436.5,130.5C 429.432,131.182 422.266,131.849 415,132.5C 413.681,130.713 412.848,128.713 412.5,126.5 Z"/></g>
<g><path style="opacity:1" fill="#99895c" d="M 119.5,130.5 C 127.167,131.833 134.833,131.833 142.5,130.5C 142.389,131.117 142.056,131.617 141.5,132C 135.167,132.667 128.833,132.667 122.5,132C 121.263,131.768 120.263,131.268 119.5,130.5 Z"/></g>
<g><path style="opacity:1" fill="#100f10" d="M 521.5,92.5 C 528.814,92.2693 534.814,94.9359 539.5,100.5C 542.44,106.76 545.774,112.76 549.5,118.5C 552.379,122.925 554.713,127.592 556.5,132.5C 559.627,130.242 562.961,128.075 566.5,126C 569.888,125.341 573.221,125.508 576.5,126.5C 578.607,127.3 580.774,127.967 583,128.5C 585.192,128.137 587.026,127.137 588.5,125.5C 589.167,125.5 589.5,125.167 589.5,124.5C 596.801,121.437 603.801,122.103 610.5,126.5C 613.022,124.144 615.688,121.977 618.5,120C 622.167,119.333 625.833,119.333 629.5,120C 633.633,123.131 637.466,126.631 641,130.5C 649,144.5 657,158.5 665,172.5C 674.884,204.843 666.384,231.01 639.5,251C 606.213,268.012 577.546,262.179 553.5,233.5C 553.573,231.973 552.906,230.973 551.5,230.5C 539.212,217.279 527.379,203.612 516,189.5C 512.462,185.097 510.629,180.097 510.5,174.5C 511.338,174.158 511.672,173.492 511.5,172.5C 514.945,162.553 521.945,158.553 532.5,160.5C 533.622,161.947 535.122,162.947 537,163.5C 536.235,160.206 534.735,157.206 532.5,154.5C 525.665,142.158 518.332,130.158 510.5,118.5C 508.57,113.348 508.07,108.014 509,102.5C 511.323,96.8451 515.49,93.5118 521.5,92.5 Z"/></g>
<g><path style="opacity:1" fill="#fafafb" d="M 520.5,101.5 C 523.93,101.107 527.096,101.773 530,103.5C 543.626,125.917 557.126,148.417 570.5,171C 574.45,172.025 576.783,170.525 577.5,166.5C 573.603,159.042 569.436,151.708 565,144.5C 564.565,135.938 568.398,133.105 576.5,136C 581.375,142.914 585.875,150.081 590,157.5C 594.143,160.671 596.643,159.671 597.5,154.5C 595.887,149.94 593.72,145.607 591,141.5C 589.725,133.11 593.225,129.943 601.5,132C 606.957,139.075 611.79,146.575 616,154.5C 618.064,155.591 620.231,155.758 622.5,155C 623.097,153.938 623.43,152.772 623.5,151.5C 621.887,146.94 619.72,142.607 617,138.5C 614.971,132.372 617.137,129.038 623.5,128.5C 626.191,128.679 628.525,129.679 630.5,131.5C 638.081,144.998 645.915,158.331 654,171.5C 664.712,199.152 658.879,222.652 636.5,242C 608.938,257.805 584.438,253.972 563,230.5C 548.904,213.315 534.571,196.315 520,179.5C 519.33,171.839 522.83,168.673 530.5,170C 542.145,181.981 553.478,194.315 564.5,207C 568.006,207.844 570.339,206.51 571.5,203C 554.385,173.269 536.885,143.769 519,114.5C 516.639,109.729 517.139,105.396 520.5,101.5 Z"/></g>
<g><path style="opacity:1" fill="#f3e53d" d="M 245.5,42.5 C 245.169,72.0047 245.502,101.338 246.5,130.5C 252.167,130.5 257.833,130.5 263.5,130.5C 263.833,130.5 264.167,130.5 264.5,130.5C 263.665,131.943 262.332,132.943 260.5,133.5C 255.162,134.679 249.828,134.679 244.5,133.5C 244.286,135.144 244.62,136.644 245.5,138C 244.552,138.483 243.552,138.649 242.5,138.5C 244.047,106.385 245.047,74.385 245.5,42.5 Z"/></g>
<g><path style="opacity:1" fill="#c3c56c" d="M 532.5,154.5 C 534.735,157.206 536.235,160.206 537,163.5C 535.122,162.947 533.622,161.947 532.5,160.5C 532.5,158.5 532.5,156.5 532.5,154.5 Z"/></g>
<g><path style="opacity:1" fill="#ece253" d="M 68.5,170.5 C 216.133,172.466 363.8,173.133 511.5,172.5C 511.672,173.492 511.338,174.158 510.5,174.5C 368.166,174.667 225.833,174.5 83.5,174C 78.2711,173.248 73.2711,172.081 68.5,170.5 Z"/></g>
<g><path style="opacity:0.004" fill="#c1c1c3" d="M 551.5,230.5 C 552.906,230.973 553.573,231.973 553.5,233.5C 552.094,233.027 551.427,232.027 551.5,230.5 Z"/></g>
</svg>
